<svg viewBox="0 0 1969 1969" fill="none" xmlns="http://www.w3.org/2000/svg">
<path d="M1969 984.5C1969 1113.79 1943.54 1241.81 1894.06 1361.25C1844.58 1480.7 1772.07 1589.23 1680.65 1680.65C1589.23 1772.07 1480.7 1844.58 1361.25 1894.06C1241.81 1943.54 1113.79 1969 984.5 1969C855.214 1969 727.193 1943.54 607.748 1894.06C488.303 1844.58 379.773 1772.07 288.353 1680.65C196.934 1589.23 124.416 1480.7 74.9406 1361.25C25.4648 1241.81 -1.13026e-05 1113.79 0 984.5H295.35C295.35 1075 313.175 1164.61 347.808 1248.23C382.441 1331.84 433.204 1407.81 497.197 1471.8C561.191 1535.8 637.162 1586.56 720.774 1621.19C804.385 1655.82 894 1673.65 984.5 1673.65C1075 1673.65 1164.61 1655.82 1248.23 1621.19C1331.84 1586.56 1407.81 1535.8 1471.8 1471.8C1535.8 1407.81 1586.56 1331.84 1621.19 1248.23C1655.82 1164.61 1673.65 1075 1673.65 984.5H1969Z" fill="#0F0F0F"/>
<path d="M1670.69 565.106L1387.84 282.264L1105 565.106" stroke="#0F0F0F" stroke-width="295"/>
<circle cx="530" cy="376" r="295" fill="#0F0F0F"/>
</svg>
