<svg xmlns="http://www.w3.org/2000/svg" viewBox="0 0 1000 1000" fill="none">
    <path d="M1000 500C1000 565.661 987.067 630.679 961.94 691.342C936.812 752.005 899.983 807.124 853.553 853.553C807.124 899.983 752.004 936.812 691.342 961.94C630.679 987.067 565.661 1000 500 1000C434.339 1000 369.321 987.067 308.658 961.94C247.995 936.812 192.876 899.983 146.447 853.553C100.017 807.124 63.1876 752.005 38.0602 691.342C12.9329 630.679 -5.74026e-06 565.661 0 500L160 500C160 544.649 168.794 588.862 185.881 630.112C202.968 671.363 228.012 708.844 259.584 740.416C291.156 771.988 328.637 797.032 369.888 814.119C411.138 831.206 455.351 840 500 840C544.649 840 588.862 831.206 630.112 814.119C671.363 797.032 708.844 771.988 740.416 740.416C771.988 708.844 797.032 671.363 814.119 630.112C831.206 588.862 840 544.649 840 500H1000Z" fill="#203145"/>
    <path d="M823.843 348.421L682.422 207L541.001 348.421" stroke="#203145" stroke-width="135"/>
    <circle cx="264" cy="274" r="135" fill="#203145"/>
</svg>